<svg width="70" height="70" viewBox="0 0 70 70" fill="none" xmlns="http://www.w3.org/2000/svg">
<g clip-path="url(#clip0_1_5)">
<path d="M35 70C54.33 70 70 54.33 70 35C70 15.67 54.33 0 35 0C15.67 0 0 15.67 0 35C0 54.33 15.67 70 35 70Z" fill="#E3E4EA"/>
<path d="M35.0163 34.5C39.8286 34.5 43.6097 30.87 43.6097 26.25C43.6097 21.63 39.8286 18 35.0163 18C30.204 18 26.4229 21.63 26.4229 26.25C26.4229 30.87 30.204 34.5 35.0163 34.5ZM51 49.02C48.7657 40.605 39.8286 35.325 31.0633 37.47C25.2198 38.955 20.5794 43.245 19.0326 49.02C18.8607 49.845 19.3763 50.835 20.4075 51C20.5794 51 20.7512 51 20.7512 51H49.2813C50.3125 51 51 50.34 51 49.35C51 49.185 51 49.02 51 49.02Z" fill="white"/>
</g>
<defs>
<clipPath id="clip0_1_5">
<rect width="70" height="70" fill="white"/>
</clipPath>
</defs>
</svg>
